<svg width="1024" height="1024" version="1.1" xmlns="http://www.w3.org/2000/svg" desc="Created with imagetracer.js version 1.2.6" ><path fill="rgb(0,0,0)" stroke="rgb(0,0,0)" stroke-width="1" opacity="0" d="M 0 0 L 1024 0 L 1024 1024 L 0 1024 L 0 0 Z M 508 261 L 507 262 L 490 262 L 474 265 L 466 265 L 452 269 L 448 269 L 426 277 L 423 277 L 389 293 L 374 302 L 350 320 L 343 327 Q 340 326 341 329 L 337 332 Q 338 334 336 333 L 333 337 L 329 340 Q 330 342 328 341 L 301 375 L 289 395 L 277 421 L 265 460 L 264 472 L 261 484 L 261 498 L 260 499 L 260 527 L 261 528 L 261 542 L 263 549 L 263 555 Q 266 558 265 566 L 269 577 L 269 581 L 277 602 L 277 605 L 297 645 L 314 669 L 329 686 L 332 687 L 333 690 L 336 691 L 337 694 L 344 699 Q 346 698 345 701 L 375 723 L 377 723 L 388 731 L 413 743 L 416 743 L 423 747 L 426 747 L 435 751 L 448 755 L 453 755 L 464 759 L 471 759 L 486 762 L 497 762 L 498 763 L 525 763 L 526 762 L 546 761 L 554 759 L 560 759 L 591 751 L 621 739 L 644 727 Q 667 713 686 695 L 687 693 L 690 691 L 691 689 L 694 687 L 723 651 L 723 649 L 727 645 L 743 615 L 743 612 L 751 595 L 759 567 L 759 562 L 763 544 L 763 533 L 764 532 L 763 482 L 759 464 L 759 459 L 751 431 L 744 416 L 743 411 L 726 379 Q 715 361 701 347 L 699 344 Q 680 322 657 306 L 636 293 L 618 284 L 587 272 L 564 266 L 545 264 L 544 263 L 536 263 L 535 262 L 515 262 Q 513 260 508 261 Z " /><path fill="rgb(209,208,208)" stroke="rgb(209,208,208)" stroke-width="1" opacity="0.9686274509803922" d="M 507.5 261 Q 513 259.5 514.5 262 L 534.5 262 L 535.5 263 L 543.5 263 L 544.5 264 L 563.5 266 L 586.5 272 L 617.5 284 L 635.5 293 L 656.5 306 Q 680.1 322.4 699 343.5 L 701 346.5 Q 715.2 360.8 726 378.5 L 743 410.5 L 744 415.5 L 751 430.5 L 759 458.5 L 759 463.5 L 763 481.5 L 764 531.5 L 763 532.5 L 763 543.5 L 759 561.5 L 759 566.5 L 751 594.5 L 743 611.5 L 743 614.5 L 727 644.5 L 723 648.5 L 723 650.5 L 693.5 687 L 691 688.5 L 689.5 691 L 687 692.5 L 685.5 695 Q 666.5 713 643.5 727 L 620.5 739 L 590.5 751 L 559.5 759 L 553.5 759 L 545.5 761 L 525.5 762 L 524.5 763 L 497.5 763 L 496.5 762 L 485.5 762 L 470.5 759 L 463.5 759 L 452.5 755 L 447.5 755 L 434.5 751 L 425.5 747 L 422.5 747 L 415.5 743 L 412.5 743 L 387.5 731 L 376.5 723 L 374.5 723 L 345 700.5 Q 345.8 698.3 343.5 699 L 337 694 L 335.5 691 L 333 689.5 L 331.5 687 L 329 685.5 L 314 668.5 L 297 644.5 L 277 604.5 L 277 601.5 L 269 580.5 L 269 576.5 L 265 565.5 Q 265.9 558.1 263 554.5 L 263 548.5 L 261 541.5 L 261 527.5 L 260 526.5 L 260 498.5 L 261 497.5 L 261 483.5 L 264 471.5 L 265 459.5 L 277 420.5 L 289 394.5 L 301 374.5 L 327.5 341 Q 329.8 341.8 329 339.5 L 333 337 L 335.5 333 Q 337.8 333.8 337 331.5 L 341 329 Q 339.9 326.3 342.5 327 L 349.5 320 L 373.5 302 L 388.5 293 L 422.5 277 L 425.5 277 L 447.5 269 L 451.5 269 L 465.5 265 L 473.5 265 L 489.5 262 L 506.5 262 L 507.5 261 Z M 496 263 L 495 264 L 485 264 L 484 265 L 477 265 L 460 268 L 437 274 L 413 283 Q 370 301 340 331 Q 304 365 282 413 L 271 443 L 266 463 L 264 480 L 263 481 L 263 489 L 262 490 L 262 507 L 261 508 Q 260 513 262 515 L 262 536 L 263 537 L 264 551 L 270 579 L 275 595 Q 293 644 325 679 Q 359 717 410 740 L 447 753 L 475 759 L 492 760 L 493 761 L 530 761 L 531 760 L 540 760 L 541 759 L 549 759 L 570 755 L 585 751 Q 639 734 678 700 Q 718 665 742 613 L 754 580 L 758 564 L 761 547 L 761 540 L 762 539 L 762 527 L 763 526 L 763 501 L 762 500 L 762 489 L 761 488 L 760 473 L 754 446 L 747 425 Q 729 377 697 344 Q 659 302 602 279 L 581 272 L 548 265 L 531 264 L 530 263 L 496 263 Z " /><path fill="rgb(209,208,208)" stroke="rgb(209,208,208)" stroke-width="1" opacity="0.9686274509803922" d="M 603.5 350 L 608 362.5 L 609 389.5 L 606 406.5 L 601 421.5 L 596 430.5 Q 614.7 455.3 615 498.5 Q 596.9 506.9 585 521.5 Q 572.3 536.8 566 558.5 L 562 580.5 L 562 597.5 L 563 598.5 L 563 606.5 L 565 616.5 L 570 631.5 L 580 650.5 Q 595.3 672.7 616 689.5 L 630 710.5 L 601.5 711 L 561.5 703 Q 535.7 695.3 514.5 683 Q 482.8 664.2 459 637.5 Q 434.7 609.8 420 572.5 L 414 553.5 L 409 529.5 L 409 521.5 L 408 520.5 L 408 489.5 L 414 458.5 L 419 444.5 L 427 429.5 L 423 422.5 L 417 403.5 L 416 392.5 L 415 391.5 L 415 370.5 L 419 351 L 425 355.5 L 431.5 363 Q 447.5 378 470.5 386 L 482.5 381 L 496.5 378 L 517.5 377 L 518.5 378 L 527.5 378 L 537.5 380 L 554.5 386 Q 584.5 374.5 603 351.5 L 603.5 350 Z M 429 377 L 428 393 Q 430 394 429 399 L 437 421 L 454 415 L 469 415 Q 479 417 487 423 Q 500 433 504 453 Q 505 468 499 477 L 499 480 L 509 494 L 513 496 L 525 479 L 520 461 L 521 448 L 528 433 Q 538 419 557 415 L 570 415 L 582 419 L 586 422 L 588 419 L 594 402 L 595 391 L 596 390 L 596 377 L 585 386 L 556 400 L 540 394 L 526 391 L 499 391 L 485 394 L 471 400 Q 446 392 429 377 Z M 457 428 L 443 434 Q 435 440 432 451 L 432 464 L 437 475 Q 443 483 455 486 Q 470 488 478 482 Q 488 475 491 461 Q 492 447 486 441 Q 480 433 471 429 L 457 428 Z M 558 428 L 546 433 Q 536 440 533 454 L 533 460 L 535 468 L 541 478 L 547 482 L 557 486 L 570 486 L 581 481 Q 589 475 592 464 L 592 451 L 585 438 L 572 429 L 558 428 Z M 599 477 L 598 481 Q 589 494 571 499 Q 559 501 552 498 Q 541 495 535 489 L 513 519 L 490 489 Q 481 496 469 499 Q 457 501 450 498 L 435 490 L 425 480 Q 426 477 423 478 L 421 491 L 421 520 L 422 521 L 422 529 L 427 553 L 432 568 Q 447 605 472 633 Q 500 664 542 682 L 572 692 L 604 698 L 604 697 L 578 670 L 565 651 L 554 625 L 551 612 L 550 593 L 549 592 Q 551 584 550 574 L 556 548 Q 564 525 579 509 L 602 490 L 601 485 L 601 478 L 599 477 Z " /><path fill="rgb(0,0,0)" stroke="rgb(0,0,0)" stroke-width="1" opacity="0.996078431372549" d="M 495.5 263 L 529.5 263 L 530.5 264 L 547.5 265 L 580.5 272 L 601.5 279 Q 658.9 301.6 697 343.5 Q 728.7 377.3 747 424.5 L 754 445.5 L 760 472.5 L 761 487.5 L 762 488.5 L 762 499.5 L 763 500.5 L 763 525.5 L 762 526.5 L 762 538.5 L 761 539.5 L 761 546.5 L 758 563.5 L 754 579.5 L 742 612.5 Q 718 664.5 677.5 700 Q 639.3 733.8 584.5 751 L 569.5 755 L 548.5 759 L 540.5 759 L 539.5 760 L 530.5 760 L 529.5 761 L 492.5 761 L 491.5 760 L 474.5 759 L 446.5 753 L 409.5 740 Q 359.1 717.4 325 678.5 Q 293 643.5 275 594.5 L 270 578.5 L 264 550.5 L 263 536.5 L 262 535.5 L 262 514.5 Q 259.5 513 261 507.5 L 262 506.5 L 262 489.5 L 263 488.5 L 263 480.5 L 264 479.5 L 266 462.5 L 271 442.5 L 282 412.5 Q 303.7 364.7 339.5 331 Q 370.4 301.4 412.5 283 L 436.5 274 L 459.5 268 L 476.5 265 L 483.5 265 L 484.5 264 L 494.5 264 L 495.5 263 Z M 604 350 L 603 352 Q 585 375 555 386 L 538 380 L 528 378 L 519 378 L 518 377 L 497 378 L 483 381 L 471 386 Q 447 378 432 363 L 425 356 L 419 351 L 415 371 L 415 392 L 416 393 L 417 404 L 423 423 L 427 430 L 419 445 L 414 459 L 408 490 L 408 521 L 409 522 L 409 530 L 414 554 L 420 573 Q 435 610 459 638 Q 483 664 515 683 Q 536 695 562 703 L 602 711 L 630 711 L 616 690 Q 595 673 580 651 L 570 632 L 565 617 L 563 607 L 563 599 L 562 598 L 562 581 L 566 559 Q 572 537 585 522 Q 597 507 615 499 Q 615 455 596 431 L 601 422 L 606 407 L 609 390 L 608 363 L 604 350 Z " /><path fill="rgb(0,0,0)" stroke="rgb(0,0,0)" stroke-width="1" opacity="0.996078431372549" d="M 428.5 377 Q 445.6 392.4 470.5 400 L 484.5 394 L 498.5 391 L 525.5 391 L 539.5 394 L 555.5 400 L 584.5 386 L 595.5 377 L 596 389.5 L 595 390.5 L 594 401.5 L 588 418.5 L 585.5 422 L 581.5 419 L 569.5 415 L 556.5 415 Q 537.5 419 528 432.5 L 521 447.5 L 520 460.5 L 525 478.5 L 512.5 496 L 509 493.5 L 499 479.5 L 499 476.5 Q 504.7 467.7 504 452.5 Q 500.4 432.6 486.5 423 Q 479.2 417.3 468.5 415 L 453.5 415 L 437 421 L 429 398.5 Q 430.3 393.8 428 392.5 L 428.5 377 Z " /><path fill="rgb(0,0,0)" stroke="rgb(0,0,0)" stroke-width="1" opacity="0.996078431372549" d="M 456.5 428 L 470.5 429 Q 480.5 432.5 486 440.5 Q 491.7 447.3 491 460.5 Q 488.1 475.1 477.5 482 Q 470.2 488.2 454.5 486 Q 443.4 482.6 437 474.5 L 432 463.5 L 432 450.5 Q 434.6 439.6 442.5 434 L 456.5 428 Z " /><path fill="rgb(0,0,0)" stroke="rgb(0,0,0)" stroke-width="1" opacity="0.996078431372549" d="M 557.5 428 L 571.5 429 L 585 437.5 L 592 450.5 L 592 463.5 Q 589.1 475.1 580.5 481 L 569.5 486 L 556.5 486 L 546.5 482 L 541 478 L 535 467.5 L 533 459.5 L 533 453.5 Q 535.6 439.6 545.5 433 L 557.5 428 Z " /><path fill="rgb(0,0,0)" stroke="rgb(0,0,0)" stroke-width="1" opacity="0.996078431372549" d="M 599 477 L 601 477.5 L 601 484.5 L 602 489.5 L 579 508.5 Q 564.2 524.7 556 547.5 L 550 573.5 Q 551.4 584.4 549 591.5 L 550 592.5 L 551 611.5 L 554 624.5 L 565 650.5 L 578 669.5 L 604 696.5 L 604 698 L 571.5 692 L 541.5 682 Q 500.5 663.5 472 632.5 Q 446.6 605.4 432 567.5 L 427 552.5 L 422 528.5 L 422 520.5 L 421 519.5 L 421 490.5 L 423 478 Q 425.7 476.9 425 479.5 L 434.5 490 L 449.5 498 Q 457 500.5 468.5 499 Q 481.5 496.5 489.5 489 L 512.5 519 L 534.5 489 Q 541.3 495.2 551.5 498 Q 559 500.5 570.5 499 Q 588.8 494.3 598 480.5 L 599 477 Z " /></svg>